#N canvas 286 9 1014 761 12;
#X obj 47 695 dac~ 1 2 3 4 5 6;
#X obj 36 62 route K1 K2 K3 K4 K5 K6;
#X obj 379 60 route S1 S2 S3 S4 S5 S6;
#X obj 36 25 r fromRack;
#X obj 267 296 random-gates 1;
#X obj 484 296 random-gates 2;
#X obj 706 296 random-gates 3;
#X obj 267 542 random-gates 4;
#X obj 484 542 random-gates 5;
#X obj 706 542 random-gates 6;
#X obj 706 64 adc~ 1 2 3 4 5 6;
#X text 708 37 Intensity:;
#X obj 815 89 send~ RG-6-IN;
#X obj 793 111 send~ RG-5-IN;
#X obj 772 133 send~ RG-4-IN;
#X obj 749 155 send~ RG-3-IN;
#X obj 728 177 send~ RG-2-IN;
#X obj 705 200 send~ RG-1-IN;
#X obj 267 245 r~ RG-1-IN;
#X obj 484 245 r~ RG-2-IN;
#X obj 707 244 r~ RG-3-IN;
#X obj 36 206 send RG-1-PR;
#X obj 62 184 send RG-2-PR;
#X obj 88 162 send RG-3-PR;
#X obj 115 140 send RG-4-PR;
#X obj 141 118 send RG-5-PR;
#X obj 167 96 send RG-6-PR;
#X obj 155 672 r~ VCV-6;
#X obj 46 560 r~ VCV-1;
#X obj 67 582 r~ VCV-2;
#X obj 89 605 r~ VCV-3;
#X obj 111 627 r~ VCV-4;
#X obj 134 650 r~ VCV-5;
#X obj 363 271 r RG-1-PR;
#X obj 580 272 r RG-2-PR;
#X obj 802 272 r RG-3-PR;
#X obj 267 387 send~ VCV-1;
#X obj 484 387 send~ VCV-2;
#X obj 707 386 send~ VCV-3;
#X obj 267 650 send~ VCV-4;
#X obj 484 650 send~ VCV-5;
#X obj 707 649 send~ VCV-6;
#X obj 379 206 send RG-1-MB;
#X obj 405 184 send RG-2-MB;
#X obj 431 162 send RG-3-MB;
#X obj 458 140 send RG-4-MB;
#X obj 484 118 send RG-5-MB;
#X obj 510 96 send RG-6-MB;
#X obj 460 272 r RG-1-MB;
#X obj 677 272 r RG-2-MB;
#X obj 267 492 r~ RG-4-IN;
#X obj 363 518 r RG-4-PR;
#X obj 460 519 r RG-4-MB;
#X obj 484 492 r~ RG-5-IN;
#X obj 580 519 r RG-5-PR;
#X obj 677 519 r RG-5-MB;
#X obj 706 492 r~ RG-6-IN;
#X obj 802 519 r RG-6-PR;
#X obj 899 519 r RG-6-MB;
#X obj 899 272 r RG-3-MB;
#X msg 460 418 L1 \$1 \$2 \$3;
#X msg 677 418 L2 \$1 \$2 \$3;
#X msg 899 418 L3 \$1 \$2 \$3;
#X msg 677 683 L5 \$1 \$2 \$3;
#X msg 899 683 L6 \$1 \$2 \$3;
#X obj 460 446 print toRack;
#X obj 677 446 print toRack;
#X obj 899 446 print toRack;
#X obj 460 711 print toRack;
#X obj 677 711 print toRack;
#X obj 899 711 print toRack;
#X obj 352 446 print toRack;
#X obj 569 446 print toRack;
#X obj 791 446 print toRack;
#X msg 352 418 S1 \$1 \$2 \$3;
#X msg 569 418 S2 \$1 \$2 \$3;
#X msg 791 418 S3 \$1 \$2 \$3;
#X obj 351 711 print toRack;
#X obj 568 711 print toRack;
#X obj 790 711 print toRack;
#X msg 351 683 S4 \$1 \$2 \$3;
#X msg 460 683 L4 \$1 \$2 \$3;
#X msg 568 684 S5 \$1 \$2 \$3;
#X msg 790 683 S6 \$1 \$2 \$3;
#X obj 379 25 r fromRack;
#X obj 27 473 print toRack;
#X obj 27 403 loadbang;
#X msg 27 438 display Greetings from Pure Data!;
#X connect 1 0 21 0;
#X connect 1 1 22 0;
#X connect 1 2 23 0;
#X connect 1 3 24 0;
#X connect 1 4 25 0;
#X connect 1 5 26 0;
#X connect 2 0 42 0;
#X connect 2 1 43 0;
#X connect 2 2 44 0;
#X connect 2 3 45 0;
#X connect 2 4 46 0;
#X connect 2 5 47 0;
#X connect 3 0 1 0;
#X connect 4 0 36 0;
#X connect 4 1 60 0;
#X connect 4 1 74 0;
#X connect 5 0 37 0;
#X connect 5 1 61 0;
#X connect 5 1 75 0;
#X connect 6 0 38 0;
#X connect 6 1 62 0;
#X connect 6 1 76 0;
#X connect 7 0 39 0;
#X connect 7 1 81 0;
#X connect 7 1 80 0;
#X connect 8 0 40 0;
#X connect 8 1 63 0;
#X connect 8 1 82 0;
#X connect 9 0 41 0;
#X connect 9 1 64 0;
#X connect 9 1 83 0;
#X connect 10 0 17 0;
#X connect 10 1 16 0;
#X connect 10 2 15 0;
#X connect 10 3 14 0;
#X connect 10 4 13 0;
#X connect 10 5 12 0;
#X connect 18 0 4 0;
#X connect 19 0 5 0;
#X connect 20 0 6 0;
#X connect 27 0 0 5;
#X connect 28 0 0 0;
#X connect 29 0 0 1;
#X connect 30 0 0 2;
#X connect 31 0 0 3;
#X connect 32 0 0 4;
#X connect 33 0 4 1;
#X connect 34 0 5 1;
#X connect 35 0 6 1;
#X connect 48 0 4 2;
#X connect 49 0 5 2;
#X connect 50 0 7 0;
#X connect 51 0 7 1;
#X connect 52 0 7 2;
#X connect 53 0 8 0;
#X connect 54 0 8 1;
#X connect 55 0 8 2;
#X connect 56 0 9 0;
#X connect 57 0 9 1;
#X connect 58 0 9 2;
#X connect 59 0 6 2;
#X connect 60 0 65 0;
#X connect 61 0 66 0;
#X connect 62 0 67 0;
#X connect 63 0 69 0;
#X connect 64 0 70 0;
#X connect 74 0 71 0;
#X connect 75 0 72 0;
#X connect 76 0 73 0;
#X connect 80 0 77 0;
#X connect 81 0 68 0;
#X connect 82 0 78 0;
#X connect 83 0 79 0;
#X connect 84 0 2 0;
#X connect 87 0 85 0;
